<svg version="1.2" xmlns="http://www.w3.org/2000/svg" viewBox="0 0 448 448" width="448" height="448"><title>CC Manager UI logo</title><style>.a{fill:#c15f3c}.b{fill:#fff}</style><path fill-rule="evenodd" class="a" d="m90 10h267c44.2 0 80 35.8 80 80v267c0 44.2-35.8 80-80 80h-267c-44.2 0-80-35.8-80-80v-267c0-44.2 35.8-80 80-80z"/><path class="b" d="m142.5 60.4c6.2-7 15.9-13.6 4.7 0.3-19 21.9-37.5 44.6-55.9 67.1-2 2.6-2.4 5.6-1.8 8.7 1.1 9.3 0 21.8-8.9 26.9-2.4 1.3-5.5 2.1-8.2 1.6-2.8-0.3-5.7-1.8-8.1-1.3-2.8 0.6-4.3 3.3-7.1 3.9-3 0.9-6.4-1.7-6.6-4.9-0.1-4.1 3.5-7.3 4.9-11.1 0.7-1.8 1-3.5 1-5.3-0.3-6.8 1.9-13.1 7-17.7 3.2-3 6.9-5.6 11.2-5.8 4.3 0 9 0 11.9-3.8 18.5-19.5 37.3-38.8 55.5-58.6h0.1zm241.8 23.7c1.3-2.2 5.3-13.8 7.6-12.9 0.4 0.3 0.7 0.7 1 1.1 1 2.6 1.7 5.5 2.4 8.3 1.3 5.3 2.5 10.6 2.5 16.1 0 12.3-9 22.5-18.9 28.8-3.6 2.4-8.1 3.8-12.4 3.4-6.4-0.4-11.3-6.3-11.7-12.7-0.4-4.8 1-9.5 1.3-14.1 0.4-4.1-0.2-8.3-0.3-12.3 0-3.4 3.9-0.9 5.1 0.4 2.5 2 3.9 5.2 4.9 8.2 1 3 2.6 4.4 5.3 2.2 5.5-4.3 10.2-9.9 13.1-16.2v-0.3zm-174.7 14.4c3.3-1.7 6.1-4.4 8.6-7.1 0.8-0.9 1.8-2.2 3.1-2.2 1.3 0.3 1.9 3.8 2 6.5 0.9 5.6-2 10.7-2.3 16 0 1.7 1 3.3 2.3 4.6 11.2 10 17.6 24.7 20.2 39.3 2.9 12.3-2.3 22-15.2 24.3-20.9 3.6-43.7-8.4-52.7-28.1-7.2-15.1-2.2-35.3 12.7-43.8 6.5-4 14.2-5.9 21-9.3h0.3zm145.9 35.4c2.7-0.9 5.5 0.8 8.4 1.1 3.2 0.7 7 0.3 8.5 1.7 1 1 0.8 2.2 0.5 3.8-0.4 2.1-1.1 4.4-1.8 6.6-11.1 36.1-40.6 65.7-76.3 78.2-3.4 1.3-6.7 0.6-9.1-2-3.8-3.5-7.2-7.6-11.8-9.8-3.7-1.1 0.6 6.1 1 7.5 1.7 3.6 3.2 7.3 4.5 11 10.4 31.3 8.1 65.2 0.1 96.7-2 7.6-4.3 15.1-7.5 22.2-0.5 1.3-1.1 2.2-1.4 2-0.3 0-0.4-0.7-0.6-1.8 0-4.5 0-9.2-0.1-13.6-0.4-13.5-3.4-26.7-7.7-39.4-0.9-2.7-1.8-5.5-2.1-8.3 1.2-20 3.2-40.6-3.1-60.1-3-10.9-7.9-21.2-13.9-30.6-1.7-2.8-3.7-5.5-5.6-8.2-0.9-1.3-1.3-2.3-1-2.9 0.3-1 3.2-0.8 4.6-0.5 29.4 3 61.2-0.8 85.3-19.1 7.4-5.6 13.9-12.3 19-19.9 2.5-3.6 4.6-7.2 6.8-10.9 1-1.7 1.8-3 3.3-3.4h0.1zm-282.8 39.9c0.9-1 2.6-1.1 3.9-1.4 3.9-0.6 7.7-2 11.2-4 5-3.2 6.1 0.4 8.9 5 9.1 14.9 24 26.2 41 31 9.8 2.7 20 3.4 30 3.8 20.4 1.5 39.9 10.9 53.8 25.7 7.2 6.8 7.6 3 3.7-3.5-6.7-9.6-15.5-18.2-25.9-23.6-11.9-6.2-25.2-8.6-38.6-9-4.4 0-4.3-0.9-0.4-2.3 9.9-3.8 20.5-7.2 31.2-6 21.1 2.4 38.3 18 48.2 36.1 15 26.3 16.6 59.3 5.4 87.4-16 42.4-57.6 70.2-99.7 82.1-1.4-0.2 1.1-2.9 1.9-3.6 22.2-23.1 41.5-50.9 47.1-83 2.9-16.9 1.4-36.1-10-49.8-9.6-11.8-25.7-12.5-39.4-15.5-35.3-6.6-59.7-31.7-71.8-64.6-0.6-1.3-1.3-3.6-0.6-4.5z"/></svg>